<svg width="10" height="14" viewBox="0 0 10 14" fill="none" xmlns="http://www.w3.org/2000/svg">
<g clip-path="url(#clip0_1_189)">
<path d="M9.67672 3.40057V4.41477C9.67672 4.50758 9.6444 4.58381 9.57974 4.64347C9.51509 4.70312 9.43247 4.73295 9.3319 4.73295H7.52155C7.35632 5.6875 6.89296 6.46307 6.13147 7.05966C5.36997 7.65625 4.37859 8.02083 3.15733 8.15341C4.35704 9.33333 6.00575 11.1098 8.10345 13.483C8.20402 13.589 8.21839 13.7017 8.14655 13.821C8.08908 13.9403 7.98491 14 7.83405 14H5.73276C5.61782 14 5.52802 13.9602 5.46336 13.8807C3.26509 11.4479 1.47629 9.5554 0.0969828 8.20312C0.0323276 8.14347 0 8.07055 0 7.98438V6.72159C0 6.63542 0.0341236 6.56084 0.102371 6.49787C0.170618 6.4349 0.251437 6.40341 0.344828 6.40341H1.55172C2.5 6.40341 3.26329 6.26089 3.84159 5.97585C4.4199 5.69081 4.78807 5.27652 4.94612 4.73295H0.344828C0.244253 4.73295 0.161638 4.70312 0.0969828 4.64347C0.0323276 4.58381 0 4.50758 0 4.41477V3.40057C0 3.30777 0.0323276 3.23153 0.0969828 3.17188C0.161638 3.11222 0.244253 3.08239 0.344828 3.08239H4.79526C4.38578 2.33333 3.42313 1.95881 1.90733 1.95881H0.344828C0.251437 1.95881 0.170618 1.92732 0.102371 1.86435C0.0341236 1.80137 0 1.7268 0 1.64062V0.318182C0 0.225379 0.0323276 0.149148 0.0969828 0.0894886C0.161638 0.0298295 0.244253 0 0.344828 0H9.31034C9.41092 0 9.49354 0.0298295 9.55819 0.0894886C9.62284 0.149148 9.65517 0.225379 9.65517 0.318182V1.33239C9.65517 1.42519 9.62284 1.50142 9.55819 1.56108C9.49354 1.62074 9.41092 1.65057 9.31034 1.65057H6.79957C7.13721 2.05492 7.3671 2.5322 7.48922 3.08239H9.3319C9.43247 3.08239 9.51509 3.11222 9.57974 3.17188C9.6444 3.23153 9.67672 3.30777 9.67672 3.40057Z" fill="black"/>
</g>
<defs>
<clipPath id="clip0_1_189">
<rect width="10" height="14" fill="white"/>
</clipPath>
</defs>
</svg>
