<svg width="25" height="25" viewBox="0 0 25 25" fill="none" xmlns="http://www.w3.org/2000/svg">
<path d="M11.1784 3.82166C10.8659 3.50921 10.442 3.33369 10.0001 3.33369C9.55814 3.33369 9.13429 3.50921 8.82175 3.82166L1.32175 11.3217C1.0093 11.6342 0.833771 12.0581 0.833771 12.5C0.833771 12.9419 1.0093 13.3658 1.32175 13.6783L8.82175 21.1783C9.13609 21.4819 9.55709 21.6499 9.99408 21.6461C10.4311 21.6423 10.8491 21.467 11.1581 21.158C11.4671 20.849 11.6424 20.431 11.6462 19.994C11.65 19.557 11.482 19.136 11.1784 18.8217L6.66675 14.1667H22.5001C22.9421 14.1667 23.366 13.9911 23.6786 13.6785C23.9912 13.3659 24.1667 12.942 24.1667 12.5C24.1667 12.058 23.9912 11.634 23.6786 11.3215C23.366 11.0089 22.9421 10.8333 22.5001 10.8333H6.66675L11.1784 6.17833C11.4909 5.86578 11.6664 5.44194 11.6664 5C11.6664 4.55806 11.4909 4.13421 11.1784 3.82166Z" fill="black"/>
</svg>
