<svg width="31" height="44" viewBox="0 0 31 44" fill="none" xmlns="http://www.w3.org/2000/svg">
<path d="M15.4 20.9C13.9413 20.9 12.5424 20.3205 11.5109 19.2891C10.4795 18.2576 9.9 16.8587 9.9 15.4C9.9 13.9413 10.4795 12.5424 11.5109 11.5109C12.5424 10.4795 13.9413 9.9 15.4 9.9C16.8587 9.9 18.2576 10.4795 19.2891 11.5109C20.3205 12.5424 20.9 13.9413 20.9 15.4C20.9 16.1223 20.7577 16.8375 20.4813 17.5048C20.2049 18.1721 19.7998 18.7784 19.2891 19.2891C18.7784 19.7998 18.1721 20.2049 17.5048 20.4813C16.8375 20.7577 16.1223 20.9 15.4 20.9ZM15.4 0C11.3157 0 7.39862 1.6225 4.51056 4.51056C1.6225 7.39862 0 11.3157 0 15.4C0 26.95 15.4 44 15.4 44C15.4 44 30.8 26.95 30.8 15.4C30.8 11.3157 29.1775 7.39862 26.2894 4.51056C23.4014 1.6225 19.4843 0 15.4 0Z" fill="#F7D665"/>
</svg>
