<svg width="38" height="38" viewBox="0 0 38 38" fill="none" xmlns="http://www.w3.org/2000/svg">
<path d="M26.9166 28.5C25.1591 28.5 23.7499 29.9091 23.7499 31.6666C23.7499 32.5065 24.0835 33.3119 24.6774 33.9058C25.2713 34.4997 26.0767 34.8333 26.9166 34.8333C27.7564 34.8333 28.5619 34.4997 29.1558 33.9058C29.7496 33.3119 30.0833 32.5065 30.0833 31.6666C30.0833 30.8268 29.7496 30.0213 29.1558 29.4275C28.5619 28.8336 27.7564 28.5 26.9166 28.5ZM1.58325 3.16663V6.33329H4.74992L10.4499 18.3508L8.29658 22.23C8.05908 22.6733 7.91658 23.1958 7.91658 23.75C7.91658 24.5898 8.25021 25.3953 8.84408 25.9891C9.43794 26.583 10.2434 26.9166 11.0833 26.9166H30.0833V23.75H11.7483C11.6433 23.75 11.5426 23.7083 11.4684 23.634C11.3941 23.5598 11.3524 23.4591 11.3524 23.3541C11.3524 23.275 11.3683 23.2116 11.3999 23.1641L12.8249 20.5833H24.6208C25.8083 20.5833 26.8532 19.9183 27.3916 18.9525L33.0599 8.70829C33.1707 8.45496 33.2499 8.18579 33.2499 7.91663C33.2499 7.4967 33.0831 7.09397 32.7862 6.79704C32.4892 6.50011 32.0865 6.33329 31.6666 6.33329H8.24908L6.76075 3.16663M11.0833 28.5C9.32575 28.5 7.91658 29.9091 7.91658 31.6666C7.91658 32.5065 8.25021 33.3119 8.84408 33.9058C9.43794 34.4997 10.2434 34.8333 11.0833 34.8333C11.9231 34.8333 12.7286 34.4997 13.3224 33.9058C13.9163 33.3119 14.2499 32.5065 14.2499 31.6666C14.2499 30.8268 13.9163 30.0213 13.3224 29.4275C12.7286 28.8336 11.9231 28.5 11.0833 28.5Z" fill="black"/>
</svg>
